#!OML:ASF H:\Dans Jumps\Project 1\Capture day 1\Session 1\subject.ASF
:FULLY-SPECIFIED
:DEGREES
639
root 0.629661 17.5626 3.03045 7.40954 -0.1704 -0.585801
lowerback -2.76918 -0.256175 -0.99794
upperback 0.897817 -0.345463 1.72092
thorax 2.49148 -0.201788 2.3119
lowerneck -12.5626 0.463469 -1.77521
upperneck 16.7461 0.887432 0.574474
head 7.19269 0.364622 0.566803
rclavicle 6.06293e-015 -6.75868e-015
rhumerus -28.4722 -23.4524 -76.2484
rradius 19.3879
rwrist 42.0259
rhand -18.8584 -26.4825
rfingers 7.12502
rthumb 7.44186 -56.3316
lclavicle 6.06293e-015 -6.75868e-015
lhumerus -25.3886 3.25128 88.9422
lradius 13.2566
lwrist 0.258847
lhand -23.8712 -3.80325
lfingers 7.12502
lthumb 2.60179 26.1606
rfemur -13.2026 -2.35785 19.1834
rtibia 26.3307
rfoot -17.8641 -3.39002
rtoes 5.03921
lfemur -12.2814 6.95448 -18.1255
ltibia 22.9322
lfoot -13.8234 6.24832
ltoes -5.21246
640
root 0.630766 17.5624 3.03315 7.40698 -0.167422 -0.575747
lowerback -2.77293 -0.256636 -0.997382
upperback 0.894321 -0.346013 1.71903
thorax 2.49 -0.201997 2.30959
lowerneck -12.5563 0.456656 -1.78864
upperneck 16.7202 0.877387 0.591819
head 7.18312 0.360701 0.573519
rclavicle 4.96962e-017 -3.97569e-015
rhumerus -28.4612 -23.4245 -76.2692
rradius 19.3926
rwrist 42.0057
rhand -18.8512 -26.4856
rfingers 7.12502
rthumb 7.44875 -56.3344
lclavicle 4.96962e-017 -3.97569e-015
lhumerus -25.3919 3.23202 88.9568
lradius 13.2531
lwrist 0.26272
lhand -23.812 -3.73862
lfingers 7.12502
lthumb 2.65895 26.2246
rfemur -13.1901 -2.36584 19.1678
rtibia 26.3343
rfoot -17.8734 -3.39273
rtoes 4.9999
lfemur -12.2676 6.95844 -18.1407
ltibia 22.9316
lfoot -13.8308 6.24425
ltoes -5.19938
641
root 0.631871 17.5623 3.03575 7.4037 -0.163862 -0.566482
lowerback -2.77804 -0.25721 -0.995459
upperback 0.893711 -0.34678 1.71666
thorax 2.49225 -0.202345 2.30602
lowerneck -12.5523 0.448895 -1.79939
upperneck 16.692 0.866022 0.606625
head 7.17327 0.356098 0.578839
rclavicle -4.72114e-015 6.75868e-015
rhumerus -28.4432 -23.4128 -76.287
rradius 19.3886
rwrist 42.0044
rhand -18.8428 -26.4831
rfingers 7.12502
rthumb 7.45687 -56.3317
lclavicle -4.72114e-015 6.75868e-015
lhumerus -25.3902 3.21609 88.9692
lradius 13.2497
lwrist 0.269436
lhand -23.7654 -3.67749
lfingers 7.12502
lthumb 2.70396 26.2851
rfemur -13.1758 -2.37229 19.1532
rtibia 26.3358
rfoot -17.8815 -3.39793
rtoes 4.96001
lfemur -12.2543 6.96303 -18.1549
ltibia 22.9322
lfoot -13.8373 6.23936
ltoes -5.19448
642
root 0.632964 17.5622 3.0383 7.39969 -0.160332 -0.559775
lowerback -2.78242 -0.257323 -0.990317
upperback 0.892931 -0.347044 1.71402
thorax 2.49387 -0.202382 2.30038
lowerneck -12.5521 0.441851 -1.8058
upperneck 16.6681 0.855245 0.619332
head 7.16553 0.351832 0.582858
rclavicle 2.13694e-015 -8.74653e-015
rhumerus -28.4267 -23.396 -76.3071
rradius 19.3867
rwrist 42.0025
rhand -18.8319 -26.4827
rfingers 7.12502
rthumb 7.46741 -56.3309
lclavicle 2.13694e-015 -8.74653e-015
lhumerus -25.3886 3.19831 88.9803
lradius 13.2504
lwrist 0.292245
lhand -23.7238 -3.59905
lfingers 7.12502
lthumb 2.74412 26.363
rfemur -13.1598 -2.37545 19.1415
rtibia 26.3354
rfoot -17.8892 -3.4034
rtoes 4.93468
lfemur -12.2415 6.96864 -18.166
ltibia 22.9348
lfoot -13.844 6.23412
ltoes -5.18892
643
root 0.634022 17.562 3.04081 7.39494 -0.157123 -0.556517
lowerback -2.78778 -0.257078 -0.981417
upperback 0.894471 -0.347003 1.71179
thorax 2.49839 -0.202255 2.29307
lowerneck -12.5596 0.435273 -1.80989
upperneck 16.6468 0.844969 0.631148
head 7.15995 0.347856 0.586297
rclavicle 1.93815e-015 -2.78299e-015
rhumerus -28.4056 -23.3746 -76.3311
rradius 19.386
rwrist 41.9995
rhand -18.82 -26.4821
rfingers 7.12502
rthumb 7.47894 -56.3299
lclavicle 1.93815e-015 -2.78299e-015
lhumerus -25.3823 3.18323 88.9894
lradius 13.253
lwrist 0.321259
lhand -23.6451 -3.46282
lfingers 7.12502
lthumb 2.82013 26.4983
rfemur -13.143 -2.37427 19.1337
rtibia 26.3343
rfoot -17.8967 -3.40952
rtoes 4.93348
lfemur -12.2291 6.97495 -18.1726
ltibia 22.9382
lfoot -13.8494 6.22897
ltoes -5.18963
644
root 0.635065 17.5619 3.04326 7.39063 -0.155485 -0.55586
lowerback -2.79428 -0.256557 -0.97037
upperback 0.896451 -0.346702 1.71052
thorax 2.50399 -0.201984 2.28554
lowerneck -12.5693 0.429602 -1.81351
upperneck 16.6256 0.835963 0.642557
head 7.15481 0.344479 0.589659
rclavicle 3.47873e-016 3.18055e-015
rhumerus -28.384 -23.3455 -76.3575
rradius 19.3888
rwrist 41.9919
rhand -18.8089 -26.4809
rfingers 7.12502
rthumb 7.48961 -56.3283
lclavicle 3.47873e-016 3.18055e-015
lhumerus -25.3773 3.16362 88.9998
lradius 13.2595
lwrist 0.354511
lhand -23.6011 -3.36105
lfingers 7.12502
lthumb 2.86257 26.5995
rfemur -13.1274 -2.36999 19.1289
rtibia 26.333
rfoot -17.903 -3.4158
rtoes 4.94133
lfemur -12.2178 6.98222 -18.176
ltibia 22.9424
lfoot -13.8545 6.22475
ltoes -5.19789
645
root 0.636116 17.5617 3.04557 7.38735 -0.154726 -0.551835
lowerback -2.801 -0.256419 -0.963234
upperback 0.898015 -0.346751 1.7088
thorax 2.50932 -0.20194 2.27974
lowerneck -12.5778 0.424303 -1.81789
upperneck 16.6019 0.827518 0.654379
head 7.14864 0.341374 0.593318
rclavicle 1.78906e-015 -1.15295e-014
rhumerus -28.3599 -23.3041 -76.3882
rradius 19.3942
rwrist 41.9723
rhand -18.7989 -26.4836
rfingers 7.12502
rthumb 7.49929 -56.3306
lclavicle 1.78906e-015 -1.15295e-014
lhumerus -25.3723 3.14009 89.0115
lradius 13.2658
lwrist 0.385543
lhand -23.5878 -3.29133
lfingers 7.12502
lthumb 2.87547 26.669
rfemur -13.1145 -2.3676 19.1201
rtibia 26.3329
rfoot -17.9084 -3.41809
rtoes 4.95873
lfemur -12.2083 6.98959 -18.1834
ltibia 22.9467
lfoot -13.8589 6.22056
ltoes -5.19971
646
root 0.637209 17.5616 3.04778 7.38467 -0.153346 -0.549354
lowerback -2.80598 -0.256893 -0.954773
upperback 0.897807 -0.347678 1.70814
thorax 2.51188 -0.202284 2.27424
lowerneck -12.5851 0.419071 -1.82489
upperneck 16.5787 0.819202 0.668751
head 7.14238 0.338393 0.598247
rclavicle -2.83268e-015 5.56597e-015
rhumerus -28.3383 -23.2565 -76.419
rradius 19.4043
rwrist 41.9475
rhand -18.7876 -26.4862
rfingers 7.12502
rthumb 7.51018 -56.3329
lclavicle -2.83268e-015 5.56597e-015
lhumerus -25.3698 3.11621 89.0235
lradius 13.2713
lwrist 0.408626
lhand -23.593 -3.25916
lfingers 7.12502
lthumb 2.87038 26.7013
rfemur -13.1038 -2.36799 19.1131
rtibia 26.3342
rfoot -17.9132 -3.41716
rtoes 4.98116
lfemur -12.1999 6.99469 -18.189
ltibia 22.9511
lfoot -13.8625 6.2172
ltoes -5.20276
647
root 0.638274 17.5614 3.04983 7.38324 -0.151963 -0.546887
lowerback -2.8096 -0.257814 -0.947216
upperback 0.896111 -0.349172 1.70816
thorax 2.51219 -0.2029 2.26992
lowerneck -12.5904 0.41279 -1.83486
upperneck 16.5548 0.809789 0.68437
head 7.13553 0.334814 0.603951
rclavicle -1.19271e-015 -4.77083e-015
rhumerus -28.3164 -23.2063 -76.4493
rradius 19.4152
rwrist 41.9197
rhand -18.7749 -26.4887
rfingers 7.12502
rthumb 7.52246 -56.335
lclavicle -1.19271e-015 -4.77083e-015
lhumerus -25.37 3.09595 89.0345
lradius 13.2754
lwrist 0.414542
lhand -23.6278 -3.27693
lfingers 7.12502
lthumb 2.83681 26.684
rfemur -13.0955 -2.3695 19.1064
rtibia 26.3357
rfoot -17.9155 -3.41491
rtoes 4.99411
lfemur -12.1935 6.99837 -18.1947
ltibia 22.9561
lfoot -13.8675 6.2134
ltoes -5.20049
